<?xml version="1.0" encoding="UTF-8"?>
<svg version="1.1" xmlns="http://www.w3.org/2000/svg" width="1024" height="1024">
<path d="M0 0 C337.92 0 675.84 0 1024 0 C1024 337.92 1024 675.84 1024 1024 C686.08 1024 348.16 1024 0 1024 C0 686.08 0 348.16 0 0 Z " fill="#E3E2DB" transform="translate(0,0)"/>
<path d="M0 0 C1.98 0.66 3.96 1.32 6 2 C6 2.66 6 3.32 6 4 C7.32 4 8.64 4 10 4 C10 4.66 10 5.32 10 6 C11.32 6 12.64 6 14 6 C14 6.66 14 7.32 14 8 C14.99 8 15.98 8 17 8 C17.495 10.475 17.495 10.475 18 13 C17.34 13 16.68 13 16 13 C16 14.32 16 15.64 16 17 C16.66 17 17.32 17 18 17 C16.69490481 21.60861739 14.91925126 24.84039926 12 28.625 C11.60264648 29.14368652 11.20529297 29.66237305 10.79589844 30.19677734 C8.04388129 33.75675574 5.1643265 37.19638059 2.25 40.625 C-3.77017207 47.76106066 -9.12954903 55.34951146 -14.53710938 62.95410156 C-16.45488616 65.63617256 -18.41500316 68.28618645 -20.375 70.9375 C-23.3986692 75.08800244 -26.15871715 79.35347226 -28.87890625 83.70703125 C-32.23455697 88.91663265 -35.76838895 94.00376669 -39.29370117 99.09960938 C-42.33533359 103.51013678 -45.23879623 107.94591878 -47.93505859 112.57739258 C-48.28648926 113.04685303 -48.63791992 113.51631348 -49 114 C-49.66 114 -50.32 114 -51 114 C-50.34 111.36 -49.68 108.72 -49 106 C-51.29576227 106.87075252 -51.29576227 106.87075252 -52.078125 109.703125 C-52.65820312 111.45882812 -52.65820312 111.45882812 -53.25 113.25 C-55.68453174 120.42026008 -58.70259278 127.17855963 -62 134 C-63.09658936 130.71023192 -62.79953138 129.28696233 -62 126 C-62.72316406 127.82337891 -62.72316406 127.82337891 -63.4609375 129.68359375 C-64.09860027 131.26837329 -64.73664066 132.85300092 -65.375 134.4375 C-65.69210937 135.23994141 -66.00921875 136.04238281 -66.3359375 136.86914062 C-66.6453125 137.63291016 -66.9546875 138.39667969 -67.2734375 139.18359375 C-67.55622559 139.89056396 -67.83901367 140.59753418 -68.13037109 141.32592773 C-69 143 -69 143 -71 144 C-70.51421457 140.87709365 -70.0013988 138.00419641 -69 135 C-70.15026086 137.41464681 -71.29532205 139.83153318 -72.4375 142.25 C-72.76298828 142.93191406 -73.08847656 143.61382812 -73.42382812 144.31640625 C-73.73642578 144.98027344 -74.04902344 145.64414062 -74.37109375 146.328125 C-74.65911865 146.9355957 -74.94714355 147.54306641 -75.24389648 148.16894531 C-76.03670459 150.08888746 -76.54475403 151.9758162 -77 154 C-77.66 154 -78.32 154 -79 154 C-79.2165625 152.63875 -79.2165625 152.63875 -79.4375 151.25 C-79.88416757 148.18831426 -79.88416757 148.18831426 -80.640625 146.07421875 C-81.11049759 143.36223674 -80.44357382 142.0559081 -79.3125 139.5625 C-77.56107534 135.44726444 -76.04790286 131.32446141 -74.6875 127.0625 C-74.34074219 125.98097656 -73.99398438 124.89945312 -73.63671875 123.78515625 C-72.7319638 120.93794187 -72.7319638 120.93794187 -74 118 C-73.67 117.236875 -73.34 116.47375 -73 115.6875 C-71.7190467 113.0369408 -71.7190467 113.0369408 -72.69921875 110.37109375 C-73.13499284 105.48702831 -71.17072876 102.55648093 -68.8125 98.375 C-68.36487305 97.55539795 -67.91724609 96.7357959 -67.45605469 95.89135742 C-64.00258744 89.63298645 -60.40036093 83.45774511 -56.75 77.3125 C-56.26764893 76.50022949 -55.78529785 75.68795898 -55.28833008 74.85107422 C-52.57338312 70.3618795 -49.66038746 66.16377506 -46.46875 62.00317383 C-43.9377177 58.55119244 -41.80482 54.86713437 -39.625 51.1875 C-33.1248242 40.41499581 -25.85568516 30.67416586 -17.671875 21.140625 C-15.30095582 18.37174215 -13.01236773 15.5461507 -10.75 12.6875 C-7.30166474 8.33433296 -3.70056449 4.14000653 0 0 Z " fill="#B47647" transform="translate(550,304)"/>
<path d="M0 0 C1.94712891 -0.03287109 1.94712891 -0.03287109 3.93359375 -0.06640625 C8.50749146 0.72627139 9.57688218 2.06451918 12.5625 5.5625 C13.87852431 8.0275877 15.01649995 10.37980059 16.09375 12.94140625 C16.40703751 13.65823578 16.72032501 14.37506531 17.04310608 15.11361694 C18.06035741 17.44622785 19.06154169 19.78535719 20.0625 22.125 C21.47271308 25.37985394 22.89038822 28.63143448 24.30859375 31.8828125 C24.66300034 32.6982402 25.01740692 33.51366791 25.3825531 34.35380554 C27.67714842 39.61136016 30.06048429 44.81710514 32.53515625 49.9921875 C32.99654495 50.96118233 32.99654495 50.96118233 33.46725464 51.94975281 C34.90867489 54.972374 36.36384283 57.98642465 37.83984375 60.99243164 C38.60167969 62.58752563 38.60167969 62.58752563 39.37890625 64.21484375 C39.82693604 65.13257568 40.27496582 66.05030762 40.73657227 66.99584961 C41.70803036 70.01474968 41.63150157 71.59051726 40.5625 74.5625 C35.67426286 77.82132476 30.27028562 77.24370557 24.5625 76.5625 C19.15697224 73.10296224 18.96798921 69.9771379 16.5625 63.5625 C5.6725 63.2325 -5.2175 62.9025 -16.4375 62.5625 C-17.4275 65.8625 -18.4175 69.1625 -19.4375 72.5625 C-21.76533073 75.61777784 -23.26624292 76.38081404 -27.03125 76.96484375 C-31.8370965 77.22968207 -34.5965399 77.11235853 -38.6875 74.4375 C-40.4375 71.5625 -40.4375 71.5625 -40.36328125 69.046875 C-39.02428315 64.00727033 -36.7043144 59.5882696 -34.375 54.9375 C-30.48683806 47.04388164 -26.75309343 39.11081236 -23.22265625 31.05078125 C-22.68909767 29.83473206 -22.68909767 29.83473206 -22.14476013 28.59411621 C-20.71991304 25.34113253 -19.29783358 22.08715054 -17.89376831 18.82513428 C-16.90570224 16.52969871 -15.90671441 14.23927152 -14.90625 11.94921875 C-14.46932579 10.91792595 -14.46932579 10.91792595 -14.02357483 9.86579895 C-10.75450736 2.43181858 -8.21092383 -0.00813768 0 0 Z " fill="#4C6B35" transform="translate(363.4375,506.4375)"/>
<path d="M0 0 C5.24164252 4.15716476 8.65190093 10.08070279 10.75 16.375 C11.80449477 26.39937436 10.56010522 34.03768484 4.75 42.375 C2.32933921 45.1813426 -0.17333827 47.31816283 -3.25 49.375 C-3.87003906 49.80683594 -4.49007812 50.23867188 -5.12890625 50.68359375 C-12.4998828 54.85230651 -22.07327329 54.56212314 -30.25 53.375 C-39.73592241 50.54368983 -45.78700032 44.96655741 -50.90234375 36.70703125 C-53.92422576 29.23553747 -53.55166386 19.14147926 -51.44140625 11.4140625 C-47.99575645 4.61814421 -41.4309256 -1.42996376 -34.5 -4.5625 C-22.06427459 -8.62802561 -10.861998 -7.241332 0 0 Z " fill="#4C6B34" transform="translate(703.25,529.625)"/>
<path d="M0 0 C6.47916672 4.58650691 10.664409 9.60456615 12.58984375 17.3828125 C13.03287582 20.20977905 13.13273114 22.88947837 13.125 25.75 C13.12886719 27.19632813 13.12886719 27.19632813 13.1328125 28.671875 C13 31 13 31 12 32 C9.04294679 32.08868299 6.10934944 32.11520296 3.15234375 32.09765625 C1.82270348 32.09553383 1.82270348 32.09553383 0.46620178 32.09336853 C-2.37673254 32.08775215 -5.21958931 32.07519691 -8.0625 32.0625 C-9.98502491 32.05748711 -11.90755104 32.05292384 -13.83007812 32.04882812 C-18.55341549 32.03777741 -23.27669458 32.02050183 -28 32 C-25.1204024 36.57748509 -25.1204024 36.57748509 -21 40 C-13.85113992 40.80476934 -8.40861648 40.0707954 -2 37 C1.23067461 37 2.16112655 38.13489665 4.6875 40.25 C7.02406007 43.02861198 7.69558521 44.44849408 8 48 C0.25496896 55.22869564 -8.17145376 56.58443732 -18.37670898 56.47436523 C-27.4150324 56.13385121 -34.62669793 53.5215184 -41 47 C-47.64731628 37.89002894 -49.37028265 29.11389086 -48 18 C-45.77216 10.30201714 -40.73567517 3.90880422 -33.9140625 -0.28125 C-23.64723065 -5.62458256 -9.90927005 -6.58675009 0 0 Z " fill="#4C6B34" transform="translate(517,527)"/>
<path d="M0 0 C1.04285156 0.00128906 2.08570313 0.00257813 3.16015625 0.00390625 C5.9375 0.4375 5.9375 0.4375 7.80859375 1.71484375 C8.9375 3.4375 8.9375 3.4375 8.9375 7.4375 C9.5975 7.4375 10.2575 7.4375 10.9375 7.4375 C11.2675 6.4475 11.5975 5.4575 11.9375 4.4375 C18.70505004 -0.11758176 24.92537761 -0.38374255 32.9375 0.4375 C38.50653312 1.59771523 42.33263674 4.00866799 45.9375 8.4375 C49.24044516 13.69826553 49.39121557 18.085179 49.37109375 24.10546875 C49.3763356 25.02209793 49.38157745 25.93872711 49.38697815 26.88313293 C49.39337833 28.81197092 49.39208741 30.74084804 49.38354492 32.66967773 C49.37499657 35.62618745 49.40388516 38.58078841 49.43554688 41.53710938 C49.43715806 43.41406192 49.43658294 45.29101789 49.43359375 47.16796875 C49.45044472 48.49455757 49.45044472 48.49455757 49.46763611 49.84794617 C49.39810844 55.93492023 49.39810844 55.93492023 47.05664062 58.48974609 C44.5613956 59.60570706 42.73238286 59.87078986 40 59.875 C39.16597656 59.89433594 38.33195313 59.91367187 37.47265625 59.93359375 C33.9597186 59.24616219 32.43551248 57.99734701 29.9375 55.4375 C29.4674191 52.73987885 29.30676567 50.65665369 29.37109375 47.96875 C29.36545914 47.251427 29.35982452 46.534104 29.35401917 45.79504395 C29.33758697 43.50852775 29.35309362 41.22394857 29.375 38.9375 C29.39160901 36.6512332 29.40067378 34.36624278 29.38526917 32.07995605 C29.37600779 30.65978589 29.38509406 29.23934553 29.41490173 27.81945801 C29.39612448 24.4236013 29.16018135 22.72361563 27.046875 20.00830078 C24.66244786 18.23267529 23.44827566 17.84315798 20.5 17.8125 C19.38818359 17.76222656 19.38818359 17.76222656 18.25390625 17.7109375 C14.71181627 18.82194717 12.80235175 21.35462961 10.9375 24.4375 C10.19834177 28.06249807 10.19834177 28.06249807 10.30078125 31.953125 C10.29040329 32.65016541 10.28002533 33.34720581 10.26933289 34.06536865 C10.23981904 36.27325788 10.2430064 38.47945041 10.25 40.6875 C10.24110681 42.90935555 10.22519654 45.13076399 10.1985321 47.35247803 C10.1768158 49.35760195 10.17637672 51.36292264 10.17700195 53.36816406 C9.9375 56.4375 9.9375 56.4375 7.9375 58.4375 C5.40633514 58.68973659 3.03173357 58.80773663 0.5 58.8125 C-0.5219043 58.84923828 -0.5219043 58.84923828 -1.56445312 58.88671875 C-3.55859375 58.8984375 -3.55859375 58.8984375 -7.0625 58.4375 C-9.90108606 55.55904623 -10.44177952 53.43367482 -10.46655273 49.45703125 C-10.47923691 48.46920654 -10.49192108 47.48138184 -10.50498962 46.46362305 C-10.50205399 45.40312744 -10.49911835 44.34263184 -10.49609375 43.25 C-10.5013356 42.15534424 -10.50657745 41.06068848 -10.51197815 39.93286133 C-10.5183985 37.61963753 -10.51706121 35.30638109 -10.50854492 32.99316406 C-10.50003144 29.4505821 -10.52880385 25.9096103 -10.56054688 22.3671875 C-10.56215885 20.11979215 -10.56158143 17.87239394 -10.55859375 15.625 C-10.56982773 14.56450439 -10.58106171 13.50400879 -10.59263611 12.41137695 C-10.523225 5.10230902 -10.523225 5.10230902 -8.21337891 1.76928711 C-5.34919437 -0.00416654 -3.35178232 -0.06230079 0 0 Z " fill="#4C6C34" transform="translate(548.0625,523.5625)"/>
<path d="M0 0 C4.63813173 2.791312 8.95443254 5.81789577 11 11 C10.859375 12.94140625 10.859375 12.94140625 10 15 C7.85546875 16.73828125 7.85546875 16.73828125 5.1875 18.3125 C4.31480469 18.84488281 3.44210937 19.37726562 2.54296875 19.92578125 C0 21 0 21 -2.15234375 20.796875 C-4 20 -4 20 -6.75 17.9375 C-10.71858266 15.57161418 -13.4879816 15.08503802 -18 16 C-22.25666699 18.24162425 -22.25666699 18.24162425 -25 22 C-25.12257461 23.95549256 -25.17552388 25.91570618 -25.1875 27.875 C-25.20876953 29.44894531 -25.20876953 29.44894531 -25.23046875 31.0546875 C-25.00170266 33.97824059 -24.58507656 35.56734778 -23 38 C-19.04916885 41.16066492 -15.98039064 41.52425165 -11 41 C-7.72808708 39.64184747 -5.50104494 38.50104494 -3 36 C2.03314416 36 5.12756685 37.9984978 8.69140625 41.32421875 C10 43 10 43 10.375 46 C7.71517233 51.80326037 2.83674124 55.01397592 -2.99267578 57.40014648 C-6.74517096 58.52151363 -10.4851364 58.48652378 -14.375 58.4375 C-15.21844971 58.42920166 -16.06189941 58.42090332 -16.9309082 58.41235352 C-23.03654119 58.24602459 -27.91421615 57.60198222 -33 54 C-33.70253906 53.53722656 -34.40507812 53.07445312 -35.12890625 52.59765625 C-41.21212607 48.01563616 -44.13233855 42.30711782 -46 35 C-47.0642902 26.47625987 -46.58962496 18.42591005 -42 11 C-31.95226585 -1.80419219 -15.2296408 -5.87810698 0 0 Z " fill="#4B6A33" transform="translate(454,525)"/>
<path d="M0 0 C1.03447266 0.01160156 1.03447266 0.01160156 2.08984375 0.0234375 C2.77949219 0.01570313 3.46914063 0.00796875 4.1796875 0 C9.33651082 0.02010457 9.33651082 0.02010457 11.58984375 2.2734375 C11.78515625 5.3125 11.78515625 5.3125 11.71484375 8.8984375 C11.69679688 10.08695313 11.67875 11.27546875 11.66015625 12.5 C11.63695312 13.41523437 11.61375 14.33046875 11.58984375 15.2734375 C12.34910156 15.23863281 13.10835937 15.20382812 13.890625 15.16796875 C15.38142578 15.12736328 15.38142578 15.12736328 16.90234375 15.0859375 C17.88847656 15.05113281 18.87460937 15.01632812 19.890625 14.98046875 C22.58984375 15.2734375 22.58984375 15.2734375 24.42578125 16.50390625 C25.89734814 18.74088545 25.96002415 20.11126497 25.90234375 22.7734375 C25.89847656 23.546875 25.89460937 24.3203125 25.890625 25.1171875 C25.58984375 27.2734375 25.58984375 27.2734375 23.58984375 30.2734375 C19.95984375 30.2734375 16.32984375 30.2734375 12.58984375 30.2734375 C12.91984375 38.8534375 13.24984375 47.4334375 13.58984375 56.2734375 C17.21984375 56.2734375 20.84984375 56.2734375 24.58984375 56.2734375 C28.58984375 62.33404356 28.58984375 62.33404356 28.58984375 66.5234375 C27.43511902 69.69893051 26.50646292 70.64356208 23.58984375 72.2734375 C16.99746574 74.47089684 8.32671354 74.56843978 1.96484375 71.5859375 C-2.4927764 68.89041079 -5.48534841 65.08906934 -7.41015625 60.2734375 C-7.63720703 57.06542969 -7.63720703 57.06542969 -7.60546875 53.3203125 C-7.60263885 52.66009094 -7.59980896 51.99986938 -7.59689331 51.31964111 C-7.5857404 49.22071853 -7.56064571 47.12223008 -7.53515625 45.0234375 C-7.52512009 43.59636035 -7.51599535 42.16927648 -7.5078125 40.7421875 C-7.48581736 37.25246422 -7.45132161 33.76299327 -7.41015625 30.2734375 C-8.36196777 30.29857422 -9.3137793 30.32371094 -10.29443359 30.34960938 C-13.41015625 30.2734375 -13.41015625 30.2734375 -15.26171875 29.0546875 C-16.70289613 26.81939198 -16.81163217 25.42102989 -16.78515625 22.7734375 C-16.79289063 22 -16.800625 21.2265625 -16.80859375 20.4296875 C-16.41015625 18.2734375 -16.41015625 18.2734375 -15.26171875 16.4921875 C-12.63063701 14.76033623 -10.48562667 15.06840614 -7.41015625 15.2734375 C-7.43335938 14.35820313 -7.4565625 13.44296875 -7.48046875 12.5 C-7.49851562 11.31148437 -7.5165625 10.12296875 -7.53515625 8.8984375 C-7.55835938 7.71507812 -7.5815625 6.53171875 -7.60546875 5.3125 C-7.26094608 -0.04827273 -4.81029241 0.01875358 0 0 Z " fill="#4D6C34" transform="translate(619.41015625,509.7265625)"/>
<path d="M0 0 C4.03296603 2.85258573 6.63546249 6.29137353 8.5625 10.8125 C9.26327817 15.75054153 9.11808401 19.70133198 6.875 24.1875 C3.628228 27.87302498 0.28298268 31.53729363 -4.79296875 32.05078125 C-11.3171256 32.22175915 -15.2254057 31.85453231 -20.4375 27.8125 C-24.28106821 23.96893179 -24.77107136 20.62830974 -25 15.375 C-24.83782577 10.29547133 -24.26107926 6.93255524 -20.83984375 3.11328125 C-14.84824826 -2.44438253 -7.60879476 -2.62849274 0 0 Z " fill="#E2E1D9" transform="translate(498.4375,612.1875)"/>
<path d="M0 0 C0.66 0 1.32 0 2 0 C2.98163422 1.93625098 3.96022454 3.87404539 4.9375 5.8125 C5.48277344 6.89144531 6.02804687 7.97039063 6.58984375 9.08203125 C8 12 8 12 9 15 C10.73812739 16.07925238 10.73812739 16.07925238 13 17 C17 19 21 21 25 23 C25 23.66 25 24.32 25 25 C24.21496094 25.3403125 23.42992187 25.680625 22.62109375 26.03125 C11.73574938 31.05320028 6.17844446 36.78827324 2 48 C1.34 48 0.68 48 0 48 C-0.3403125 47.21496094 -0.680625 46.42992187 -1.03125 45.62109375 C-6.05320028 34.73574938 -11.78827324 29.17844446 -23 25 C-23 24.34 -23 23.68 -23 23 C-22.21496094 22.6596875 -21.42992187 22.319375 -20.62109375 21.96875 C-9.73574938 16.94679972 -4.17844446 11.21172676 0 0 Z " fill="#F0F0EC" transform="translate(967,944)"/>
<path d="M0 0 C18.34821429 -0.80357143 18.34821429 -0.80357143 22.625 2.375 C25.01568435 5.11093305 25.48052087 7.53736179 25.6875 11.125 C25.44577438 14.54001727 25.156822 15.7804492 23.125 18.625 C21 20 21 20 19 20 C19.26554687 20.51949219 19.53109375 21.03898438 19.8046875 21.57421875 C21.70698097 25.33020694 23.51959705 29.05225879 25 33 C22.671875 33.30859375 22.671875 33.30859375 20 33 C18.515625 30.84765625 18.515625 30.84765625 17.25 28.0625 C15.25670335 24.17683696 15.25670335 24.17683696 11.6171875 22.11328125 C8.85737421 21.7968972 8.85737421 21.7968972 5 22 C5 25.63 5 29.26 5 33 C3.35 33 1.7 33 0 33 C0 22.11 0 11.22 0 0 Z " fill="#BBA16E" transform="translate(436,611)"/>
<path d="M0 0 C16.77777778 0 16.77777778 0 23.375 4.6875 C25.31996788 7.4553389 25.56606638 9.61030072 25.390625 12.96875 C24.74570877 16.32231438 23.19229923 18.44231756 21 21 C17.49515188 23.35780692 14.3950049 23.2079001 10.25 23.125 C9.07953125 23.10695313 7.9090625 23.08890625 6.703125 23.0703125 C5.81109375 23.04710937 4.9190625 23.02390625 4 23 C4 26.3 4 29.6 4 33 C2.68 33 1.36 33 0 33 C0 22.11 0 11.22 0 0 Z " fill="#B69B64" transform="translate(398,611)"/>
<path d="M0 0 C4.05549932 2.1028515 6.32004909 3.76957815 8 8 C8.70439351 12.96351704 8.53310707 16.91404116 6.3125 21.4375 C3.12215074 24.97275188 0.81419414 26.72980087 -3.9375 27.4375 C-8.76919577 26.74725775 -11.68914028 24.48564101 -14.875 20.875 C-16.57460974 16.53155289 -16.90610381 12.58759645 -16 8 C-12.10671089 1.39212398 -7.71396406 -1.04669029 0 0 Z " fill="#E0E0D8" transform="translate(686,540)"/>
<path d="M0 0 C4.03296603 2.85258573 6.63546249 6.29137353 8.5625 10.8125 C9.26327817 15.75054153 9.11808401 19.70133198 6.875 24.1875 C3.628228 27.87302498 0.28298268 31.53729363 -4.79296875 32.05078125 C-11.3171256 32.22175915 -15.2254057 31.85453231 -20.4375 27.8125 C-24.28106821 23.96893179 -24.77107136 20.62830974 -25 15.375 C-24.83782577 10.29547133 -24.26107926 6.93255524 -20.83984375 3.11328125 C-14.84824826 -2.44438253 -7.60879476 -2.62849274 0 0 Z M-18.4375 6.8125 C-20.70756346 9.83925128 -20.85572432 12.97321342 -20.7578125 16.71484375 C-20.10404803 20.99620373 -18.06014604 24.47961218 -14.6875 27.25 C-9.98791628 28.42489593 -6.01290134 28.51267837 -1.625 26.5625 C1.46246317 24.09252946 3.33690674 22.17622142 3.99609375 18.19140625 C4.04521406 12.18983117 4.04521406 12.18983117 1.75 6.75 C-2.64545211 2.85688527 -5.3086791 2.37619753 -10.9921875 2.4921875 C-14.46857872 2.94756143 -16.13332526 4.22030342 -18.4375 6.8125 Z " fill="#B89D68" transform="translate(498.4375,612.1875)"/>
<path d="M0 0 C7.26 0 14.52 0 22 0 C22 1.32 22 2.64 22 4 C16.06 4 10.12 4 4 4 C4 7.3 4 10.6 4 14 C9.28 14 14.56 14 20 14 C20 15.32 20 16.64 20 18 C14.72 18 9.44 18 4 18 C4 21.63 4 25.26 4 29 C9.94 29 15.88 29 22 29 C22 30.32 22 31.64 22 33 C14.74 33 7.48 33 0 33 C0 22.11 0 11.22 0 0 Z " fill="#B49860" transform="translate(552,611)"/>
<path d="M0 0 C2.375 1.75 2.375 1.75 3.25 3.9375 C3.29125 4.535625 3.3325 5.13375 3.375 5.75 C-0.625 5.75 -0.625 5.75 -3.625 3.75 C-7.01607371 3.20397966 -10.23374176 3.20372076 -13.625 3.75 C-16.44924288 5.94022918 -18.04008603 7.58017207 -19.625 10.75 C-19.99964112 16.3696168 -19.76109371 19.871632 -16.625 24.75 C-13.51513793 26.82324138 -12.73391613 27.02392186 -9.1875 27 C-8.42566406 27.00515625 -7.66382813 27.0103125 -6.87890625 27.015625 C-4.40597295 26.72418745 -2.81693173 25.88518991 -0.625 24.75 C1.625 25.125 1.625 25.125 3.375 25.75 C2.37234298 28.48451915 1.78880593 29.54525978 -0.8671875 30.859375 C-6.67515703 32.73503655 -12.54017804 32.7355522 -18.0625 30.125 C-21.94172979 26.52961629 -24.32922042 24.11925482 -25.0078125 18.68359375 C-25.17997243 13.63930766 -25.11128626 9.81608911 -23 5.1875 C-16.12989099 -1.86340135 -9.32484066 -3.2154623 0 0 Z " fill="#B99D68" transform="translate(611.625,612.25)"/>
<path d="M0 0 C8.58 0 17.16 0 26 0 C26 1.32 26 2.64 26 4 C22.37 4 18.74 4 15 4 C15 13.57 15 23.14 15 33 C13.35 33 11.7 33 10 33 C10 23.43 10 13.86 10 4 C6.7 4 3.4 4 0 4 C0 2.68 0 1.36 0 0 Z " fill="#BCA676" transform="translate(625,611)"/>
<path d="M0 0 C11.02692778 -0.60587515 11.02692778 -0.60587515 15.3125 2.0625 C17 5 17 5 17.0625 8.625 C15.87647735 12.39236607 15.35678105 13.12133094 12 15 C8.984375 15.29296875 8.984375 15.29296875 5.75 15.1875 C2.90375 15.0946875 2.90375 15.0946875 0 15 C0 10.05 0 5.1 0 0 Z " fill="#E0DED3" transform="translate(402,615)"/>
<path d="M0 0 C4.62 0 9.24 0 14 0 C14.08093399 4.22955053 14.1404757 8.45755211 14.1875 12.6875 C14.21263672 13.88568359 14.23777344 15.08386719 14.26367188 16.31835938 C14.27333984 17.47529297 14.28300781 18.63222656 14.29296875 19.82421875 C14.3086792 20.88729248 14.32438965 21.95036621 14.34057617 23.0456543 C13.94794852 26.4515233 13.03842966 28.26569571 11 31 C6.97239992 33.68506672 3.72890707 33.5633716 -1 33 C-3.5625 31.6875 -3.5625 31.6875 -5 30 C-5 29.01 -5 28.02 -5 27 C-3.125 26.375 -3.125 26.375 -1 26 C-0.34 26.66 0.32 27.32 1 28 C4 28.41666667 4 28.41666667 7 28 C9.12280563 24.81579155 9.28019537 23.79462745 9.4140625 20.11328125 C9.45273437 19.17548828 9.49140625 18.23769531 9.53125 17.27148438 C9.57765625 15.80678711 9.57765625 15.80678711 9.625 14.3125 C9.68300781 12.83040039 9.68300781 12.83040039 9.7421875 11.31835938 C9.83645399 8.8792139 9.9193159 6.43963253 10 4 C6.7 4 3.4 4 0 4 C0 2.68 0 1.36 0 0 Z " fill="#B6985F" transform="translate(522,611)"/>
<path d="M0 0 C11.03030303 -0.48484848 11.03030303 -0.48484848 15.25 1.625 C17 4 17 4 17.5625 7 C16.86601207 10.71460231 15.97967083 11.71769894 13 14 C8.60786271 14.53045136 4.44112074 14.17764483 0 14 C0 9.38 0 4.76 0 0 Z " fill="#E0DED5" transform="translate(440,615)"/>
<path d="M0 0 C3.44514968 2.73128984 4.65483751 6.52643058 6.1875 10.5 C6.46013672 11.17675781 6.73277344 11.85351562 7.01367188 12.55078125 C8.17796141 15.50965239 9 17.79271544 9 21 C3.39 21 -2.22 21 -8 21 C-5.72564796 13.81783567 -2.96415819 6.9241798 0 0 Z " fill="#DBDDD4" transform="translate(363,531)"/>
<path d="M0 0 C0.33 0 0.66 0 1 0 C1 1.65 1 3.3 1 5 C5.95 4.67 10.9 4.34 16 4 C16.33 3.01 16.66 2.02 17 1 C17.33 1.66 17.66 2.32 18 3 C18.99 3.33 19.98 3.66 21 4 C19.625 5.5 19.625 5.5 18 7 C17.34 7 16.68 7 16 7 C16.26554687 7.51949219 16.53109375 8.03898438 16.8046875 8.57421875 C18.70698097 12.33020694 20.51959705 16.05225879 22 20 C19.66796875 20.30859375 19.66796875 20.30859375 17 20 C15.55078125 17.84765625 15.55078125 17.84765625 14.3125 15.0625 C12.24016069 11.07883698 12.24016069 11.07883698 8.39453125 9.11328125 C5.31984814 8.79638316 5.31984814 8.79638316 1 9 C1 12.3 1 15.6 1 19 C0.01 19 -0.98 19 -2 19 C-2.05380578 16.20807795 -2.09357669 13.4171859 -2.125 10.625 C-2.14175781 9.8309375 -2.15851563 9.036875 -2.17578125 8.21875 C-2.19335473 6.14507985 -2.10335168 4.07116759 -2 2 C-1.34 1.34 -0.68 0.68 0 0 Z " fill="#B59762" transform="translate(439,624)"/>
<path d="M0 0 C3.4744425 0.61045213 5.15550814 1.69251301 7.37890625 4.41796875 C7.70890625 6.39796875 8.03890625 8.37796875 8.37890625 10.41796875 C1.11890625 10.41796875 -6.14109375 10.41796875 -13.62109375 10.41796875 C-11.94163877 2.02069386 -8.25006365 -0.45492154 0 0 Z " fill="#E0DFD9" transform="translate(502.62109375,537.58203125)"/>
<path d="M0 0 C12.54 0 25.08 0 38 0 C38 0.33 38 0.66 38 1 C32.06 1.33 26.12 1.66 20 2 C20.33 2.99 20.66 3.98 21 5 C19.35 5.33 17.7 5.66 16 6 C16 6.66 16 7.32 16 8 C16.99 8.33 17.98 8.66 19 9 C7.18385295 9.86039906 7.18385295 9.86039906 3.3125 6.75 C1 4 1 4 0 0 Z " fill="#D9DAD1" transform="translate(489,559)"/>
<path d="M0 0 C2.375 1.75 2.375 1.75 3.25 3.9375 C3.29125 4.535625 3.3325 5.13375 3.375 5.75 C-0.625 5.75 -0.625 5.75 -3.625 3.75 C-7.01607371 3.20397966 -10.23374176 3.20372076 -13.625 3.75 C-16.44924288 5.94022918 -18.04008603 7.58017207 -19.625 10.75 C-20.285 10.75 -20.945 10.75 -21.625 10.75 C-21.625 13.39 -21.625 16.03 -21.625 18.75 C-22.285 19.08 -22.945 19.41 -23.625 19.75 C-23.70660748 17.85489301 -23.76446459 15.95875496 -23.8125 14.0625 C-23.84730469 13.00675781 -23.88210938 11.95101562 -23.91796875 10.86328125 C-23.47102468 6.1137556 -21.56794686 3.62222585 -18.125 0.4375 C-12.12507747 -2.45531979 -6.23345508 -2.14946727 0 0 Z " fill="#B89C63" transform="translate(611.625,612.25)"/>
<path d="M0 0 C0.99 0 1.98 0 3 0 C2.1025641 5.64102564 2.1025641 5.64102564 1.375 8.1875 C0.79566718 10.22346469 0.79566718 10.22346469 2 13 C1.36607553 15.46043744 0.6662424 17.74414092 -0.1875 20.125 C-0.39697266 20.77082031 -0.60644531 21.41664063 -0.82226562 22.08203125 C-1.48046875 23.9453125 -1.48046875 23.9453125 -3 27 C-5.17578125 27.9296875 -5.17578125 27.9296875 -7 28 C-6.67 26.02 -6.34 24.04 -6 22 C-6.99 24.475 -6.99 24.475 -8 27 C-9.35191359 23.944519 -8.90192265 22.69438696 -7.85546875 19.43359375 C-7.31095892 18.09682873 -6.75454173 16.76486406 -6.1875 15.4375 C-5.91357422 14.76525391 -5.63964844 14.09300781 -5.35742188 13.40039062 C-4.10696423 10.38070034 -2.81821394 7.72732091 -1 5 C-0.61500109 3.34450469 -0.27206865 1.6777567 0 0 Z " fill="#D8CEBF" transform="translate(476,413)"/>
<path d="M0 0 C11.94714163 -0.573973 11.94714163 -0.573973 17 3 C21.17738928 7.52550505 23.28800945 11.05564091 23.125 17.25 C23.10695313 18.14203125 23.08890625 19.0340625 23.0703125 19.953125 C23.04710937 20.62859375 23.02390625 21.3040625 23 22 C22.67 20.68 22.34 19.36 22 18 C20.68 18.33 19.36 18.66 18 19 C17.91363281 18.32453125 17.82726562 17.6490625 17.73828125 16.953125 C16.86293053 11.23132037 16.86293053 11.23132037 13.8125 6.4375 C10.51166205 4.75040505 7.67837373 4.2884999 4 4 C4.99 3.67 5.98 3.34 7 3 C7 2.34 7 1.68 7 1 C4.69 1 2.38 1 0 1 C0 0.67 0 0.34 0 0 Z " fill="#B9A06C" transform="translate(484,611)"/>
<path d="M0 0 C0.66 0.33 1.32 0.66 2 1 C0.31315163 6.47589972 -2.03669554 11.46773457 -4.52148438 16.609375 C-5.99367334 19.6975336 -7.37392286 22.62089874 -8 26 C-8.66 26 -9.32 26 -10 26 C-10.144375 25.0925 -10.28875 24.185 -10.4375 23.25 C-10.89228118 20.18983004 -10.89228118 20.18983004 -11.61328125 18.05859375 C-12.08659238 15.53904864 -11.66052188 14.19146158 -10.75 11.8125 C-10.37101562 10.77029297 -10.37101562 10.77029297 -9.984375 9.70703125 C-9 8 -9 8 -6 7 C-5.34 6.34 -4.68 5.68 -4 5 C-3.34 4.67 -2.68 4.34 -2 4 C-0.86649466 1.98330173 -0.86649466 1.98330173 0 0 Z " fill="#B88155" transform="translate(481,432)"/>
<path d="M0 0 C0.99 0.33 1.98 0.66 3 1 C3.33 2.98 3.66 4.96 4 7 C9.94 7.33 15.88 7.66 22 8 C22 9.32 22 10.64 22 12 C14.74 12 7.48 12 0 12 C0 8.04 0 4.08 0 0 Z " fill="#B69B68" transform="translate(552,632)"/>
<path d="M0 0 C0.33 0.99 0.66 1.98 1 3 C0.34 3 -0.32 3 -1 3 C-1 3.66 -1 4.32 -1 5 C-1.66 5 -2.32 5 -3 5 C-2.67 5.556875 -2.34 6.11375 -2 6.6875 C-0.8690399 9.30284522 -0.84337026 11.1806646 -1 14 C-2.98 14.99 -2.98 14.99 -5 16 C-5.33 15.01 -5.66 14.02 -6 13 C-6.66 13 -7.32 13 -8 13 C-8.33 14.65 -8.66 16.3 -9 18 C-9.66 18 -10.32 18 -11 18 C-11 22.95 -11 27.9 -11 33 C-11.33 33 -11.66 33 -12 33 C-12.61055519 22.06427813 -12.70795007 13.52168675 -5.109375 4.83984375 C-3.4583334 3.15188862 -1.78042099 1.54953066 0 0 Z " fill="#597640" transform="translate(481,528)"/>
<path d="M0 0 C0.33 0 0.66 0 1 0 C1.41776675 6.05761794 1.12264203 9.19025097 -3 14 C-6.27481849 16.12575937 -8.89460167 16.2167952 -12.75 16.125 C-13.73484375 16.10695313 -14.7196875 16.08890625 -15.734375 16.0703125 C-16.48203125 16.04710937 -17.2296875 16.02390625 -18 16 C-17.01 15.67 -16.02 15.34 -15 15 C-15 14.34 -15 13.68 -15 13 C-16.65 13 -18.3 13 -20 13 C-20 12.67 -20 12.34 -20 12 C-19.18015625 11.97421875 -18.3603125 11.9484375 -17.515625 11.921875 C-15.89914062 11.83679688 -15.89914062 11.83679688 -14.25 11.75 C-13.18265625 11.70359375 -12.1153125 11.6571875 -11.015625 11.609375 C-7.42933524 10.88468432 -6.38733451 9.67796654 -4 7 C-3.01 6.67 -2.02 6.34 -1 6 C-0.67 4.02 -0.34 2.04 0 0 Z " fill="#BAA06E" transform="translate(422,618)"/>
<path d="M0 0 C0.99 0.33 1.98 0.66 3 1 C3.45796457 4.12942457 3.50559016 6.23225198 1.734375 8.921875 C-2.28327338 13.64163669 -2.28327338 13.64163669 -5 15 C-7.6723621 15.13415472 -10.32250488 15.04318541 -13 15 C-13 14.34 -13 13.68 -13 13 C-12.29875 12.979375 -11.5975 12.95875 -10.875 12.9375 C-6.59948481 11.54331026 -4.52351732 8.62136171 -2 5 C-0.62949404 2.25452126 -0.62949404 2.25452126 0 0 Z " fill="#B2945C" transform="translate(503,628)"/>
<path d="M0 0 C2.7885289 -0.22107787 5.34653181 -0.28107535 8.125 -0.1875 C8.87910156 -0.17396484 9.63320313 -0.16042969 10.41015625 -0.14648438 C12.27374127 -0.11109985 14.13695978 -0.05729167 16 0 C16 1.32 16 2.64 16 4 C10.72 4 5.44 4 0 4 C0 7.3 0 10.6 0 14 C-0.33 14 -0.66 14 -1 14 C-1.22226864 12.23086176 -1.42733873 10.45955629 -1.625 8.6875 C-1.74101563 7.70136719 -1.85703125 6.71523438 -1.9765625 5.69921875 C-2 3 -2 3 0 0 Z " fill="#BCA26E" transform="translate(556,625)"/>
<path d="M0 0 C11.79734208 -0.85902976 11.79734208 -0.85902976 15.75 2.0625 C18.49909217 5.65159255 18.51972221 7.58236118 18 12 C17.01 12.33 16.02 12.66 15 13 C14.34 10.36 13.68 7.72 13 5 C12.14535156 4.80664062 11.29070312 4.61328125 10.41015625 4.4140625 C9.30542969 4.15367187 8.20070313 3.89328125 7.0625 3.625 C5.96035156 3.36976563 4.85820312 3.11453125 3.72265625 2.8515625 C2.82417969 2.57054687 1.92570312 2.28953125 1 2 C0.67 1.34 0.34 0.68 0 0 Z " fill="#B49558" transform="translate(404,612)"/>
<path d="M0 0 C-1.98 4.29 -3.96 8.58 -6 13 C-7.09658936 9.71023192 -6.79953138 8.28696233 -6 5 C-6.48210937 6.21558594 -6.96421875 7.43117188 -7.4609375 8.68359375 C-8.09860027 10.26837329 -8.73664066 11.85300092 -9.375 13.4375 C-9.69210937 14.23994141 -10.00921875 15.04238281 -10.3359375 15.86914062 C-10.6453125 16.63291016 -10.9546875 17.39667969 -11.2734375 18.18359375 C-11.55622559 18.89056396 -11.83901367 19.59753418 -12.13037109 20.32592773 C-13 22 -13 22 -15 23 C-14.51067449 18.22907626 -12.99356899 14.52404036 -10.96484375 10.25 C-10.06973579 8.16262274 -9.57285226 6.27867612 -9.125 4.0625 C-8 1 -8 1 -5 -0.5 C-2 -1 -2 -1 0 0 Z " fill="#BF8E65" transform="translate(494,425)"/>
<path d="M0 0 C0.66 0.33 1.32 0.66 2 1 C2 8.92 2 16.84 2 25 C1.01 25 0.02 25 -1 25 C-1.0289337 21.20834926 -1.04677601 17.41672673 -1.0625 13.625 C-1.07087891 12.54476562 -1.07925781 11.46453125 -1.08789062 10.3515625 C-1.09111328 9.3203125 -1.09433594 8.2890625 -1.09765625 7.2265625 C-1.10289307 6.27346191 -1.10812988 5.32036133 -1.11352539 4.33837891 C-1 2 -1 2 0 0 Z " fill="#B19358" transform="translate(637,618)"/>
<path d="M0 0 C7.26 0 14.52 0 22 0 C22 1.32 22 2.64 22 4 C16.39 4 10.78 4 5 4 C5.66 3.34 6.32 2.68 7 2 C4.69 1.67 2.38 1.34 0 1 C0 0.67 0 0.34 0 0 Z " fill="#BCA26D" transform="translate(552,611)"/>
<path d="M0 0 C0.33 0 0.66 0 1 0 C1.33 1.65 1.66 3.3 2 5 C3.32 5.33 4.64 5.66 6 6 C6 6.66 6 7.32 6 8 C4.35 8.33 2.7 8.66 1 9 C1 12.3 1 15.6 1 19 C0.01 19 -0.98 19 -2 19 C-2.05380578 16.20807795 -2.09357669 13.4171859 -2.125 10.625 C-2.14175781 9.8309375 -2.15851563 9.036875 -2.17578125 8.21875 C-2.19335473 6.14507985 -2.10335168 4.07116759 -2 2 C-1.34 1.34 -0.68 0.68 0 0 Z " fill="#B09053" transform="translate(439,624)"/>
<path d="M0 0 C0.9435441 2.53899138 1.16906025 3.60909275 0.07421875 6.140625 C-0.61220703 7.18476563 -0.61220703 7.18476563 -1.3125 8.25 C-1.76238281 8.95640625 -2.21226562 9.6628125 -2.67578125 10.390625 C-3.11277344 10.92171875 -3.54976563 11.4528125 -4 12 C-4.66 12 -5.32 12 -6 12 C-5.34 9.36 -4.68 6.72 -4 4 C-4.99 4.495 -4.99 4.495 -6 5 C-6.73075648 7.3140622 -7.40138258 9.64828869 -8 12 C-8.33 12 -8.66 12 -9 12 C-9.08131463 10.56344146 -9.13933559 9.1255517 -9.1875 7.6875 C-9.22230469 6.88699219 -9.25710938 6.08648437 -9.29296875 5.26171875 C-9 3 -9 3 -7.6875 1.21875 C-5.18004388 -0.59219053 -3.00079974 -0.20005332 0 0 Z " fill="#BA8155" transform="translate(505,406)"/>
<path d="M0 0 C0.99 0.66 1.98 1.32 3 2 C3.99 1.67 4.98 1.34 6 1 C6 1.66 6 2.32 6 3 C5.34 3 4.68 3 4 3 C4.33 4.98 4.66 6.96 5 9 C0.25 10 0.25 10 -2 10 C-2.66 10.66 -3.32 11.32 -4 12 C-4.99 12 -5.98 12 -7 12 C-4.69 8.04 -2.38 4.08 0 0 Z " fill="#B77B4C" transform="translate(512,352)"/>
<path d="M0 0 C0.99 0 1.98 0 3 0 C2.4667705 3.94589829 1.61028028 7.77157397 0.625 11.625 C0.39039063 12.54539062 0.15578125 13.46578125 -0.0859375 14.4140625 C-1.02688283 17.07605314 -2.19324915 18.85006743 -4 21 C-3.39009109 17.44219804 -2.4216319 14.3171411 -1 11 C-1.66 11 -2.32 11 -3 11 C-3.12375 11.94875 -3.2475 12.8975 -3.375 13.875 C-4 17 -4 17 -6 19 C-5.53206219 14.32062188 -4.08287035 10.98161396 -1.921875 6.90234375 C-0.82703948 4.6430857 -0.31078735 2.4862988 0 0 Z " fill="#CDB294" transform="translate(476,413)"/>
<path d="M0 0 C2.0625 0.4375 2.0625 0.4375 4 1 C3.0114653 3.69600373 2.34022364 4.80558649 -0.1875 6.25 C-3.54230653 7.14461507 -6.54297098 7.13556977 -10 7 C-10.33 6.34 -10.66 5.68 -11 5 C-9.93458984 4.58427734 -9.93458984 4.58427734 -8.84765625 4.16015625 C-7.46900391 3.61681641 -7.46900391 3.61681641 -6.0625 3.0625 C-5.14597656 2.70285156 -4.22945312 2.34320312 -3.28515625 1.97265625 C-1.07581467 1.2003782 -1.07581467 1.2003782 0 0 Z " fill="#B4955A" transform="translate(611,637)"/>
<path d="M0 0 C1.32 0 2.64 0 4 0 C4 0.66 4 1.32 4 2 C5.32 2 6.64 2 8 2 C8 2.66 8 3.32 8 4 C8.99 4 9.98 4 11 4 C11.33 5.65 11.66 7.3 12 9 C11.34 9 10.68 9 10 9 C10 10.32 10 11.64 10 13 C10.66 13 11.32 13 12 13 C11.34 14.32 10.68 15.64 10 17 C7.76448241 13.64672361 7.82716472 13.09256343 8.375 9.3125 C8.54128906 8.10013672 8.54128906 8.10013672 8.7109375 6.86328125 C8.80632813 6.24839844 8.90171875 5.63351562 9 5 C8.34 5 7.68 5 7 5 C7 4.34 7 3.68 7 3 C5.02 3.66 3.04 4.32 1 5 C0.67 3.35 0.34 1.7 0 0 Z " fill="#BE8E65" transform="translate(556,308)"/>
<path d="M0 0 C3.2578125 -0.29296875 3.2578125 -0.29296875 7.125 -0.1875 C9.04699219 -0.14689453 9.04699219 -0.14689453 11.0078125 -0.10546875 C11.99523437 -0.07066406 12.98265625 -0.03585937 14 0 C14 0.99 14 1.98 14 3 C8.72 3 3.44 3 -2 3 C-1.34 2.01 -0.68 1.02 0 0 Z " fill="#B29155" transform="translate(560,640)"/>
<path d="M0 0 C0.66 0 1.32 0 2 0 C1.125 5.75 1.125 5.75 0 8 C0.66 8.33 1.32 8.66 2 9 C1.21625 9.5775 0.4325 10.155 -0.375 10.75 C-2.80047244 12.82897637 -3.85694417 14.09040333 -5 17 C-6 15 -6 15 -5.0390625 11.77734375 C-4.57549966 10.49455347 -4.1037858 9.21468659 -3.625 7.9375 C-3.39039063 7.28716797 -3.15578125 6.63683594 -2.9140625 5.96679688 C-1.14959206 1.14959206 -1.14959206 1.14959206 0 0 Z " fill="#DDD3C7" transform="translate(499,410)"/>
<path d="M0 0 C-0.33 2.31 -0.66 4.62 -1 7 C-1.66 7 -2.32 7 -3 7 C-3 9.64 -3 12.28 -3 15 C-3.99 15.495 -3.99 15.495 -5 16 C-5.08133791 14.08404032 -5.13934367 12.16708068 -5.1875 10.25 C-5.22230469 9.18265625 -5.25710938 8.1153125 -5.29296875 7.015625 C-4.94860213 3.47094463 -4.06391445 0 0 0 Z " fill="#B29254" transform="translate(593,616)"/>
<path d="M0 0 C0.81210937 0.29003906 1.62421875 0.58007812 2.4609375 0.87890625 C3.27820313 1.16636719 4.09546875 1.45382812 4.9375 1.75 C5.56398438 1.97816406 6.19046875 2.20632813 6.8359375 2.44140625 C5.1484375 4.50390625 5.1484375 4.50390625 2.8359375 6.44140625 C-0.55560545 6.2799042 -1.74703007 5.85843868 -4.1640625 3.44140625 C-4.1640625 2.45140625 -4.1640625 1.46140625 -4.1640625 0.44140625 C-2.1640625 -0.55859375 -2.1640625 -0.55859375 0 0 Z " fill="#B89C64" transform="translate(521.1640625,637.55859375)"/>
<path d="M0 0 C0.66 0 1.32 0 2 0 C2 4.95 2 9.9 2 15 C1.34 15 0.68 15 0 15 C-0.19601608 13.25093341 -0.38147403 11.50068154 -0.5625 9.75 C-0.66691406 8.77546875 -0.77132812 7.8009375 -0.87890625 6.796875 C-0.98974468 4.2368648 -0.77738092 2.41851841 0 0 Z " fill="#B19155" transform="translate(533,622)"/>
<path d="M0 0 C0.66 0.99 1.32 1.98 2 3 C1.67 3.99 1.34 4.98 1 6 C1.99 6.33 2.98 6.66 4 7 C3.34 9.31 2.68 11.62 2 14 C1.34 14 0.68 14 0 14 C-0.2165625 12.63875 -0.2165625 12.63875 -0.4375 11.25 C-0.89426761 8.15624001 -0.89426761 8.15624001 -1.6875 5.875 C-2.10583958 3.36496253 -1.29258822 2.12896883 0 0 Z " fill="#C59D79" transform="translate(471,444)"/>
<path d="M0 0 C0.66 0.33 1.32 0.66 2 1 C2 3.64 2 6.28 2 9 C0.68 9 -0.64 9 -2 9 C-2.125 5.625 -2.125 5.625 -2 2 C-1.34 1.34 -0.68 0.68 0 0 Z " fill="#B29258" transform="translate(459,618)"/>
<path d="M0 0 C1.65 0.33 3.3 0.66 5 1 C4.0625 2.9375 4.0625 2.9375 2 5 C-0.9858081 5.66174825 -3.94861869 5.87205948 -7 6 C-7 5.34 -7 4.68 -7 4 C-5.02 3.67 -3.04 3.34 -1 3 C-0.67 2.01 -0.34 1.02 0 0 Z " fill="#DADAD1" transform="translate(686,561)"/>
<path d="M0 0 C0.33 0.66 0.66 1.32 1 2 C-1.10515339 5.72450216 -2.24267224 7.6795921 -6.25 9.375 C-7.61125 9.684375 -7.61125 9.684375 -9 10 C-8.34 8.68 -7.68 7.36 -7 6 C-6.34 6 -5.68 6 -5 6 C-4.731875 5.38125 -4.46375 4.7625 -4.1875 4.125 C-3 2 -3 2 0 0 Z " fill="#D1D0C7" transform="translate(202,921)"/>
<path d="M0 0 C1.69141656 0.08963062 3.37959602 0.24577676 5.0625 0.4375 C6.44115234 0.59025391 6.44115234 0.59025391 7.84765625 0.74609375 C8.55792969 0.82988281 9.26820313 0.91367187 10 1 C10 1.66 10 2.32 10 3 C8.35 3.66 6.7 4.32 5 5 C5 4.34 5 3.68 5 3 C3.35 3.66 1.7 4.32 0 5 C-0.5625 3.0625 -0.5625 3.0625 -1 1 C-0.67 0.67 -0.34 0.34 0 0 Z " fill="#D8D6CF" transform="translate(593,909)"/>
<path d="M0 0 C2.39456443 2.39456443 2.75546876 3.65807308 3 7 C1.18682851 9.53844009 0.01532925 9.99489025 -3 11 C-2.01 7.37 -1.02 3.74 0 0 Z " fill="#B88155" transform="translate(477,426)"/>
<path d="M0 0 C-1.33250791 3.5875213 -2.830717 6.8364623 -5 10 C-5.66 10 -6.32 10 -7 10 C-6.67 7.03 -6.34 4.06 -6 1 C-2 0 -2 0 0 0 Z " fill="#C1946F" transform="translate(506,408)"/>
<path d="M0 0 C0.33 0.66 0.66 1.32 1 2 C1.99 2.33 2.98 2.66 4 3 C2 5 2 5 -1.9140625 5.1953125 C-3.48449351 5.18200376 -5.05486221 5.15813602 -6.625 5.125 C-7.42679687 5.11597656 -8.22859375 5.10695313 -9.0546875 5.09765625 C-11.03658523 5.07406223 -13.01832981 5.03819065 -15 5 C-15 4.67 -15 4.34 -15 4 C-10.38 3.67 -5.76 3.34 -1 3 C-0.67 2.01 -0.34 1.02 0 0 Z " fill="#BAA06F" transform="translate(456,625)"/>
<path d="M0 0 C0.66 0.66 1.32 1.32 2 2 C1.625 5.125 1.625 5.125 1 8 C0.01 8 -0.98 8 -2 8 C-2.66 7.34 -3.32 6.68 -4 6 C-1.125 1.125 -1.125 1.125 0 0 Z " fill="#5D7945" transform="translate(646,571)"/>
<path d="M0 0 C1.125 1.6875 1.125 1.6875 2 4 C1.125 6.75 1.125 6.75 0 9 C-0.99 9 -1.98 9 -3 9 C-3.36923077 3.46153846 -3.36923077 3.46153846 -1.5 1.125 C-1.005 0.75375 -0.51 0.3825 0 0 Z " fill="#B27649" transform="translate(475,441)"/>
<path d="M0 0 C1.32830615 3.98491845 0.23204404 5.40048548 -1.4375 9.1875 C-1.91058594 10.27417969 -2.38367188 11.36085938 -2.87109375 12.48046875 C-3.24363281 13.31191406 -3.61617188 14.14335937 -4 15 C-4.66 15 -5.32 15 -6 15 C-6 15.66 -6 16.32 -6 17 C-6.66 16.67 -7.32 16.34 -8 16 C-5.36 10.72 -2.72 5.44 0 0 Z " fill="#DAD0C3" transform="translate(483,433)"/>
<path d="M0 0 C3.3 0 6.6 0 10 0 C10 0.33 10 0.66 10 1 C8.35 1.33 6.7 1.66 5 2 C6.32 2.66 7.64 3.32 9 4 C6.03 4 3.06 4 0 4 C0 2.68 0 1.36 0 0 Z " fill="#BCA46F" transform="translate(522,611)"/>
<path d="M0 0 C2.97 0 5.94 0 9 0 C6 2 6 2 3.3125 1.625 C2.1678125 1.315625 2.1678125 1.315625 1 1 C1 3.97 1 6.94 1 10 C0.67 10 0.34 10 0 10 C0 6.7 0 3.4 0 0 Z M4 2 C4.66 2.33 5.32 2.66 6 3 C5.01 3.99 4.02 4.98 3 6 C3 3 3 3 4 2 Z " fill="#D9D5C8" transform="translate(402,634)"/>
<path d="M0 0 C0.66 0.33 1.32 0.66 2 1 C1.04882866 2.1725131 0.08882991 3.33787015 -0.875 4.5 C-1.40867187 5.1496875 -1.94234375 5.799375 -2.4921875 6.46875 C-2.98976563 6.9740625 -3.48734375 7.479375 -4 8 C-4.66 8 -5.32 8 -6 8 C-6 6.68 -6 5.36 -6 4 C-5.01 3.67 -4.02 3.34 -3 3 C-1.33289654 1.50014391 -1.33289654 1.50014391 0 0 Z " fill="#546F3D" transform="translate(462,571)"/>
<path d="M0 0 C2.31 0 4.62 0 7 0 C5.26440562 3.057952 3.61527381 5.63379989 1 8 C1.33 6.02 1.66 4.04 2 2 C1.34 2 0.68 2 0 2 C0 1.34 0 0.68 0 0 Z " fill="#BA8154" transform="translate(547,341)"/>
<path d="M0 0 C-0.8125 1.9375 -0.8125 1.9375 -2 4 C-2.99 4.33 -3.98 4.66 -5 5 C-5 4.01 -5 3.02 -5 2 C-5.99 1.67 -6.98 1.34 -8 1 C-4.93251126 -0.86240388 -3.40254489 -1.2151946 0 0 Z " fill="#B89C66" transform="translate(615,638)"/>
<path d="M0 0 C2.31 0.33 4.62 0.66 7 1 C6.67 1.99 6.34 2.98 6 4 C3.69 3.67 1.38 3.34 -1 3 C-0.67 2.01 -0.34 1.02 0 0 Z " fill="#B49459" transform="translate(603,611)"/>
<path d="M0 0 C0.6875 2.0625 0.6875 2.0625 1 4 C-0.65 4 -2.3 4 -4 4 C-4.66 2.68 -5.32 1.36 -6 0 C-3 -1 -3 -1 0 0 Z " fill="#BCA273" transform="translate(460,640)"/>
<path d="M0 0 C1.134375 0.020625 2.26875 0.04125 3.4375 0.0625 C3.4375 0.7225 3.4375 1.3825 3.4375 2.0625 C0.7975 2.7225 -1.8425 3.3825 -4.5625 4.0625 C-4.5625 -0.28271095 -4.43767807 0.077854 0 0 Z " fill="#B19356" transform="translate(487.5625,611.9375)"/>
<path d="M0 0 C0 3.69418201 -1.28179295 5.77836178 -3 9 C-3.66 9 -4.32 9 -5 9 C-5.3125 6.75 -5.3125 6.75 -5 4 C-2.5 1.6875 -2.5 1.6875 0 0 Z " fill="#B29356" transform="translate(480,615)"/>
<path d="M0 0 C2.64 0 5.28 0 8 0 C7.360625 0.28875 6.72125 0.5775 6.0625 0.875 C3.84793921 1.82823451 3.84793921 1.82823451 3 4 C0.03 3.505 0.03 3.505 -3 3 C-2.01 2.67 -1.02 2.34 0 2 C0 1.34 0 0.68 0 0 Z " fill="#BEA574" transform="translate(598,640)"/>
<path d="M0 0 C0.99 0.33 1.98 0.66 3 1 C3.33 2.98 3.66 4.96 4 7 C2.68 6.67 1.36 6.34 0 6 C0 4.02 0 2.04 0 0 Z " fill="#B19256" transform="translate(474,625)"/>
<path d="M0 0 C2 1.125 2 1.125 4 3 C4.25 6.1875 4.25 6.1875 4 9 C1.27573689 6.64722731 0.1858237 4.37503669 -1 1 C-0.67 0.67 -0.34 0.34 0 0 Z " fill="#D9D6C8" transform="translate(453,616)"/>
<path d="M0 0 C2.15377564 2.62198774 3.40072174 4.64404172 4 8 C3.01 8.495 3.01 8.495 2 9 C2 8.34 2 7.68 2 7 C1.01 6.67 0.02 6.34 -1 6 C-0.67 4.02 -0.34 2.04 0 0 Z " fill="#5C7A44" transform="translate(391,548)"/>
<path d="M0 0 C0.66 0 1.32 0 2 0 C1.125 5.75 1.125 5.75 0 8 C-0.66 8 -1.32 8 -2 8 C-1.125 1.125 -1.125 1.125 0 0 Z " fill="#E3DAD0" transform="translate(499,410)"/>
<path d="M0 0 C2.125 0.9375 2.125 0.9375 4 2 C3.01 2.33 2.02 2.66 1 3 C0.67 3.99 0.34 4.98 0 6 C-0.66 5.34 -1.32 4.68 -2 4 C-2 3.01 -2 2.02 -2 1 C-1.34 0.67 -0.68 0.34 0 0 Z " fill="#BEA46F" transform="translate(519,637)"/>
<path d="M0 0 C2.875 0.3125 2.875 0.3125 6 1 C6.66 1.99 7.32 2.98 8 4 C6.68 4 5.36 4 4 4 C4 3.34 4 2.68 4 2 C2.35 2 0.7 2 -1 2 C-0.67 1.34 -0.34 0.68 0 0 Z " fill="#58763F" transform="translate(451,561)"/>
<path d="M0 0 C2.3125 -0.25 2.3125 -0.25 5 0 C6.8125 2 6.8125 2 8 4 C6.35 4.33 4.7 4.66 3 5 C2.67 4.34 2.34 3.68 2 3 C2.66 3 3.32 3 4 3 C4 2.34 4 1.68 4 1 C2.68 0.67 1.36 0.34 0 0 Z " fill="#56763A" transform="translate(549,524)"/>
<path d="M0 0 C0.66 0.66 1.32 1.32 2 2 C0.35 3.98 -1.3 5.96 -3 8 C-3.33 7.01 -3.66 6.02 -4 5 C-3.34 4.01 -2.68 3.02 -2 2 C-1.34 2.33 -0.68 2.66 0 3 C0 2.01 0 1.02 0 0 Z " fill="#B98055" transform="translate(558,333)"/>
<path d="M0 0 C0.99 0 1.98 0 3 0 C3.33 1.32 3.66 2.64 4 4 C1.69 4 -0.62 4 -3 4 C-1.6875 2 -1.6875 2 0 0 Z " fill="#BA7D4E" transform="translate(531,327)"/>
<path d="M0 0 C0.99 0 1.98 0 3 0 C2.67 1.98 2.34 3.96 2 6 C1.01 6.33 0.02 6.66 -1 7 C-0.67 4.69 -0.34 2.38 0 0 Z " fill="#C39F7A" transform="translate(476,413)"/>
<path d="M0 0 C0.66 0 1.32 0 2 0 C2.33 0.99 2.66 1.98 3 3 C2.01 3.99 1.02 4.98 0 6 C-0.66 5.34 -1.32 4.68 -2 4 C-1.34 2.68 -0.68 1.36 0 0 Z " fill="#BA8356" transform="translate(484,398)"/>
<path d="M0 0 C0.66 1.32 1.32 2.64 2 4 C0.6875 5.5 0.6875 5.5 -1 7 C-1.99 7 -2.98 7 -4 7 C-2.68 4.69 -1.36 2.38 0 0 Z " fill="#BD8B61" transform="translate(509,357)"/>
<path d="M0 0 C0.66 0.66 1.32 1.32 2 2 C0.02 3.98 -1.96 5.96 -4 8 C-4.66 7.67 -5.32 7.34 -6 7 C-4.02 4.69 -2.04 2.38 0 0 Z " fill="#BB8153" transform="translate(548,306)"/>
</svg>
